G75*
G70*
%OFA0B0*%
%FSLAX24Y24*%
%IPPOS*%
%LPD*%
%AMOC8*
5,1,8,0,0,1.08239X$1,22.5*
%
%ADD10C,0.0000*%
%ADD11C,0.0050*%
%ADD12C,0.0020*%
%ADD13C,0.0040*%
D10*
X001905Y000100D02*
X001955Y039420D01*
X021590Y039470D01*
X021590Y000100D01*
X001905Y000100D01*
X007613Y001569D02*
X007615Y001596D01*
X007621Y001623D01*
X007630Y001649D01*
X007643Y001673D01*
X007659Y001696D01*
X007678Y001715D01*
X007700Y001732D01*
X007724Y001746D01*
X007749Y001756D01*
X007776Y001763D01*
X007803Y001766D01*
X007831Y001765D01*
X007858Y001760D01*
X007884Y001752D01*
X007908Y001740D01*
X007931Y001724D01*
X007952Y001706D01*
X007969Y001685D01*
X007984Y001661D01*
X007995Y001636D01*
X008003Y001610D01*
X008007Y001583D01*
X008007Y001555D01*
X008003Y001528D01*
X007995Y001502D01*
X007984Y001477D01*
X007969Y001453D01*
X007952Y001432D01*
X007931Y001414D01*
X007909Y001398D01*
X007884Y001386D01*
X007858Y001378D01*
X007831Y001373D01*
X007803Y001372D01*
X007776Y001375D01*
X007749Y001382D01*
X007724Y001392D01*
X007700Y001406D01*
X007678Y001423D01*
X007659Y001442D01*
X007643Y001465D01*
X007630Y001489D01*
X007621Y001515D01*
X007615Y001542D01*
X007613Y001569D01*
X007613Y002569D02*
X007615Y002596D01*
X007621Y002623D01*
X007630Y002649D01*
X007643Y002673D01*
X007659Y002696D01*
X007678Y002715D01*
X007700Y002732D01*
X007724Y002746D01*
X007749Y002756D01*
X007776Y002763D01*
X007803Y002766D01*
X007831Y002765D01*
X007858Y002760D01*
X007884Y002752D01*
X007908Y002740D01*
X007931Y002724D01*
X007952Y002706D01*
X007969Y002685D01*
X007984Y002661D01*
X007995Y002636D01*
X008003Y002610D01*
X008007Y002583D01*
X008007Y002555D01*
X008003Y002528D01*
X007995Y002502D01*
X007984Y002477D01*
X007969Y002453D01*
X007952Y002432D01*
X007931Y002414D01*
X007909Y002398D01*
X007884Y002386D01*
X007858Y002378D01*
X007831Y002373D01*
X007803Y002372D01*
X007776Y002375D01*
X007749Y002382D01*
X007724Y002392D01*
X007700Y002406D01*
X007678Y002423D01*
X007659Y002442D01*
X007643Y002465D01*
X007630Y002489D01*
X007621Y002515D01*
X007615Y002542D01*
X007613Y002569D01*
X010708Y001950D02*
X010710Y001977D01*
X010716Y002004D01*
X010725Y002030D01*
X010738Y002054D01*
X010754Y002077D01*
X010773Y002096D01*
X010795Y002113D01*
X010819Y002127D01*
X010844Y002137D01*
X010871Y002144D01*
X010898Y002147D01*
X010926Y002146D01*
X010953Y002141D01*
X010979Y002133D01*
X011003Y002121D01*
X011026Y002105D01*
X011047Y002087D01*
X011064Y002066D01*
X011079Y002042D01*
X011090Y002017D01*
X011098Y001991D01*
X011102Y001964D01*
X011102Y001936D01*
X011098Y001909D01*
X011090Y001883D01*
X011079Y001858D01*
X011064Y001834D01*
X011047Y001813D01*
X011026Y001795D01*
X011004Y001779D01*
X010979Y001767D01*
X010953Y001759D01*
X010926Y001754D01*
X010898Y001753D01*
X010871Y001756D01*
X010844Y001763D01*
X010819Y001773D01*
X010795Y001787D01*
X010773Y001804D01*
X010754Y001823D01*
X010738Y001846D01*
X010725Y001870D01*
X010716Y001896D01*
X010710Y001923D01*
X010708Y001950D01*
X010708Y004350D02*
X010710Y004377D01*
X010716Y004404D01*
X010725Y004430D01*
X010738Y004454D01*
X010754Y004477D01*
X010773Y004496D01*
X010795Y004513D01*
X010819Y004527D01*
X010844Y004537D01*
X010871Y004544D01*
X010898Y004547D01*
X010926Y004546D01*
X010953Y004541D01*
X010979Y004533D01*
X011003Y004521D01*
X011026Y004505D01*
X011047Y004487D01*
X011064Y004466D01*
X011079Y004442D01*
X011090Y004417D01*
X011098Y004391D01*
X011102Y004364D01*
X011102Y004336D01*
X011098Y004309D01*
X011090Y004283D01*
X011079Y004258D01*
X011064Y004234D01*
X011047Y004213D01*
X011026Y004195D01*
X011004Y004179D01*
X010979Y004167D01*
X010953Y004159D01*
X010926Y004154D01*
X010898Y004153D01*
X010871Y004156D01*
X010844Y004163D01*
X010819Y004173D01*
X010795Y004187D01*
X010773Y004204D01*
X010754Y004223D01*
X010738Y004246D01*
X010725Y004270D01*
X010716Y004296D01*
X010710Y004323D01*
X010708Y004350D01*
X014248Y009600D02*
X014250Y009625D01*
X014256Y009649D01*
X014265Y009671D01*
X014278Y009692D01*
X014294Y009711D01*
X014313Y009727D01*
X014334Y009740D01*
X014356Y009749D01*
X014380Y009755D01*
X014405Y009757D01*
X014430Y009755D01*
X014454Y009749D01*
X014476Y009740D01*
X014497Y009727D01*
X014516Y009711D01*
X014532Y009692D01*
X014545Y009671D01*
X014554Y009649D01*
X014560Y009625D01*
X014562Y009600D01*
X014560Y009575D01*
X014554Y009551D01*
X014545Y009529D01*
X014532Y009508D01*
X014516Y009489D01*
X014497Y009473D01*
X014476Y009460D01*
X014454Y009451D01*
X014430Y009445D01*
X014405Y009443D01*
X014380Y009445D01*
X014356Y009451D01*
X014334Y009460D01*
X014313Y009473D01*
X014294Y009489D01*
X014278Y009508D01*
X014265Y009529D01*
X014256Y009551D01*
X014250Y009575D01*
X014248Y009600D01*
X012748Y010100D02*
X012750Y010125D01*
X012756Y010149D01*
X012765Y010171D01*
X012778Y010192D01*
X012794Y010211D01*
X012813Y010227D01*
X012834Y010240D01*
X012856Y010249D01*
X012880Y010255D01*
X012905Y010257D01*
X012930Y010255D01*
X012954Y010249D01*
X012976Y010240D01*
X012997Y010227D01*
X013016Y010211D01*
X013032Y010192D01*
X013045Y010171D01*
X013054Y010149D01*
X013060Y010125D01*
X013062Y010100D01*
X013060Y010075D01*
X013054Y010051D01*
X013045Y010029D01*
X013032Y010008D01*
X013016Y009989D01*
X012997Y009973D01*
X012976Y009960D01*
X012954Y009951D01*
X012930Y009945D01*
X012905Y009943D01*
X012880Y009945D01*
X012856Y009951D01*
X012834Y009960D01*
X012813Y009973D01*
X012794Y009989D01*
X012778Y010008D01*
X012765Y010029D01*
X012756Y010051D01*
X012750Y010075D01*
X012748Y010100D01*
X009748Y012100D02*
X009750Y012125D01*
X009756Y012149D01*
X009765Y012171D01*
X009778Y012192D01*
X009794Y012211D01*
X009813Y012227D01*
X009834Y012240D01*
X009856Y012249D01*
X009880Y012255D01*
X009905Y012257D01*
X009930Y012255D01*
X009954Y012249D01*
X009976Y012240D01*
X009997Y012227D01*
X010016Y012211D01*
X010032Y012192D01*
X010045Y012171D01*
X010054Y012149D01*
X010060Y012125D01*
X010062Y012100D01*
X010060Y012075D01*
X010054Y012051D01*
X010045Y012029D01*
X010032Y012008D01*
X010016Y011989D01*
X009997Y011973D01*
X009976Y011960D01*
X009954Y011951D01*
X009930Y011945D01*
X009905Y011943D01*
X009880Y011945D01*
X009856Y011951D01*
X009834Y011960D01*
X009813Y011973D01*
X009794Y011989D01*
X009778Y012008D01*
X009765Y012029D01*
X009756Y012051D01*
X009750Y012075D01*
X009748Y012100D01*
X012748Y018100D02*
X012750Y018125D01*
X012756Y018149D01*
X012765Y018171D01*
X012778Y018192D01*
X012794Y018211D01*
X012813Y018227D01*
X012834Y018240D01*
X012856Y018249D01*
X012880Y018255D01*
X012905Y018257D01*
X012930Y018255D01*
X012954Y018249D01*
X012976Y018240D01*
X012997Y018227D01*
X013016Y018211D01*
X013032Y018192D01*
X013045Y018171D01*
X013054Y018149D01*
X013060Y018125D01*
X013062Y018100D01*
X013060Y018075D01*
X013054Y018051D01*
X013045Y018029D01*
X013032Y018008D01*
X013016Y017989D01*
X012997Y017973D01*
X012976Y017960D01*
X012954Y017951D01*
X012930Y017945D01*
X012905Y017943D01*
X012880Y017945D01*
X012856Y017951D01*
X012834Y017960D01*
X012813Y017973D01*
X012794Y017989D01*
X012778Y018008D01*
X012765Y018029D01*
X012756Y018051D01*
X012750Y018075D01*
X012748Y018100D01*
X018248Y012100D02*
X018250Y012125D01*
X018256Y012149D01*
X018265Y012171D01*
X018278Y012192D01*
X018294Y012211D01*
X018313Y012227D01*
X018334Y012240D01*
X018356Y012249D01*
X018380Y012255D01*
X018405Y012257D01*
X018430Y012255D01*
X018454Y012249D01*
X018476Y012240D01*
X018497Y012227D01*
X018516Y012211D01*
X018532Y012192D01*
X018545Y012171D01*
X018554Y012149D01*
X018560Y012125D01*
X018562Y012100D01*
X018560Y012075D01*
X018554Y012051D01*
X018545Y012029D01*
X018532Y012008D01*
X018516Y011989D01*
X018497Y011973D01*
X018476Y011960D01*
X018454Y011951D01*
X018430Y011945D01*
X018405Y011943D01*
X018380Y011945D01*
X018356Y011951D01*
X018334Y011960D01*
X018313Y011973D01*
X018294Y011989D01*
X018278Y012008D01*
X018265Y012029D01*
X018256Y012051D01*
X018250Y012075D01*
X018248Y012100D01*
X019248Y012100D02*
X019250Y012125D01*
X019256Y012149D01*
X019265Y012171D01*
X019278Y012192D01*
X019294Y012211D01*
X019313Y012227D01*
X019334Y012240D01*
X019356Y012249D01*
X019380Y012255D01*
X019405Y012257D01*
X019430Y012255D01*
X019454Y012249D01*
X019476Y012240D01*
X019497Y012227D01*
X019516Y012211D01*
X019532Y012192D01*
X019545Y012171D01*
X019554Y012149D01*
X019560Y012125D01*
X019562Y012100D01*
X019560Y012075D01*
X019554Y012051D01*
X019545Y012029D01*
X019532Y012008D01*
X019516Y011989D01*
X019497Y011973D01*
X019476Y011960D01*
X019454Y011951D01*
X019430Y011945D01*
X019405Y011943D01*
X019380Y011945D01*
X019356Y011951D01*
X019334Y011960D01*
X019313Y011973D01*
X019294Y011989D01*
X019278Y012008D01*
X019265Y012029D01*
X019256Y012051D01*
X019250Y012075D01*
X019248Y012100D01*
X019248Y019874D02*
X019250Y019899D01*
X019256Y019923D01*
X019265Y019945D01*
X019278Y019966D01*
X019294Y019985D01*
X019313Y020001D01*
X019334Y020014D01*
X019356Y020023D01*
X019380Y020029D01*
X019405Y020031D01*
X019430Y020029D01*
X019454Y020023D01*
X019476Y020014D01*
X019497Y020001D01*
X019516Y019985D01*
X019532Y019966D01*
X019545Y019945D01*
X019554Y019923D01*
X019560Y019899D01*
X019562Y019874D01*
X019560Y019849D01*
X019554Y019825D01*
X019545Y019803D01*
X019532Y019782D01*
X019516Y019763D01*
X019497Y019747D01*
X019476Y019734D01*
X019454Y019725D01*
X019430Y019719D01*
X019405Y019717D01*
X019380Y019719D01*
X019356Y019725D01*
X019334Y019734D01*
X019313Y019747D01*
X019294Y019763D01*
X019278Y019782D01*
X019265Y019803D01*
X019256Y019825D01*
X019250Y019849D01*
X019248Y019874D01*
X019248Y026874D02*
X019250Y026899D01*
X019256Y026923D01*
X019265Y026945D01*
X019278Y026966D01*
X019294Y026985D01*
X019313Y027001D01*
X019334Y027014D01*
X019356Y027023D01*
X019380Y027029D01*
X019405Y027031D01*
X019430Y027029D01*
X019454Y027023D01*
X019476Y027014D01*
X019497Y027001D01*
X019516Y026985D01*
X019532Y026966D01*
X019545Y026945D01*
X019554Y026923D01*
X019560Y026899D01*
X019562Y026874D01*
X019560Y026849D01*
X019554Y026825D01*
X019545Y026803D01*
X019532Y026782D01*
X019516Y026763D01*
X019497Y026747D01*
X019476Y026734D01*
X019454Y026725D01*
X019430Y026719D01*
X019405Y026717D01*
X019380Y026719D01*
X019356Y026725D01*
X019334Y026734D01*
X019313Y026747D01*
X019294Y026763D01*
X019278Y026782D01*
X019265Y026803D01*
X019256Y026825D01*
X019250Y026849D01*
X019248Y026874D01*
X012598Y031100D02*
X012600Y031125D01*
X012606Y031149D01*
X012615Y031171D01*
X012628Y031192D01*
X012644Y031211D01*
X012663Y031227D01*
X012684Y031240D01*
X012706Y031249D01*
X012730Y031255D01*
X012755Y031257D01*
X012780Y031255D01*
X012804Y031249D01*
X012826Y031240D01*
X012847Y031227D01*
X012866Y031211D01*
X012882Y031192D01*
X012895Y031171D01*
X012904Y031149D01*
X012910Y031125D01*
X012912Y031100D01*
X012910Y031075D01*
X012904Y031051D01*
X012895Y031029D01*
X012882Y031008D01*
X012866Y030989D01*
X012847Y030973D01*
X012826Y030960D01*
X012804Y030951D01*
X012780Y030945D01*
X012755Y030943D01*
X012730Y030945D01*
X012706Y030951D01*
X012684Y030960D01*
X012663Y030973D01*
X012644Y030989D01*
X012628Y031008D01*
X012615Y031029D01*
X012606Y031051D01*
X012600Y031075D01*
X012598Y031100D01*
X015487Y037002D02*
X015489Y037029D01*
X015495Y037056D01*
X015504Y037082D01*
X015517Y037106D01*
X015533Y037129D01*
X015552Y037148D01*
X015574Y037165D01*
X015598Y037179D01*
X015623Y037189D01*
X015650Y037196D01*
X015677Y037199D01*
X015705Y037198D01*
X015732Y037193D01*
X015758Y037185D01*
X015782Y037173D01*
X015805Y037157D01*
X015826Y037139D01*
X015843Y037118D01*
X015858Y037094D01*
X015869Y037069D01*
X015877Y037043D01*
X015881Y037016D01*
X015881Y036988D01*
X015877Y036961D01*
X015869Y036935D01*
X015858Y036910D01*
X015843Y036886D01*
X015826Y036865D01*
X015805Y036847D01*
X015783Y036831D01*
X015758Y036819D01*
X015732Y036811D01*
X015705Y036806D01*
X015677Y036805D01*
X015650Y036808D01*
X015623Y036815D01*
X015598Y036825D01*
X015574Y036839D01*
X015552Y036856D01*
X015533Y036875D01*
X015517Y036898D01*
X015504Y036922D01*
X015495Y036948D01*
X015489Y036975D01*
X015487Y037002D01*
X015487Y038002D02*
X015489Y038029D01*
X015495Y038056D01*
X015504Y038082D01*
X015517Y038106D01*
X015533Y038129D01*
X015552Y038148D01*
X015574Y038165D01*
X015598Y038179D01*
X015623Y038189D01*
X015650Y038196D01*
X015677Y038199D01*
X015705Y038198D01*
X015732Y038193D01*
X015758Y038185D01*
X015782Y038173D01*
X015805Y038157D01*
X015826Y038139D01*
X015843Y038118D01*
X015858Y038094D01*
X015869Y038069D01*
X015877Y038043D01*
X015881Y038016D01*
X015881Y037988D01*
X015877Y037961D01*
X015869Y037935D01*
X015858Y037910D01*
X015843Y037886D01*
X015826Y037865D01*
X015805Y037847D01*
X015783Y037831D01*
X015758Y037819D01*
X015732Y037811D01*
X015705Y037806D01*
X015677Y037805D01*
X015650Y037808D01*
X015623Y037815D01*
X015598Y037825D01*
X015574Y037839D01*
X015552Y037856D01*
X015533Y037875D01*
X015517Y037898D01*
X015504Y037922D01*
X015495Y037948D01*
X015489Y037975D01*
X015487Y038002D01*
X006598Y025100D02*
X006600Y025125D01*
X006606Y025149D01*
X006615Y025171D01*
X006628Y025192D01*
X006644Y025211D01*
X006663Y025227D01*
X006684Y025240D01*
X006706Y025249D01*
X006730Y025255D01*
X006755Y025257D01*
X006780Y025255D01*
X006804Y025249D01*
X006826Y025240D01*
X006847Y025227D01*
X006866Y025211D01*
X006882Y025192D01*
X006895Y025171D01*
X006904Y025149D01*
X006910Y025125D01*
X006912Y025100D01*
X006910Y025075D01*
X006904Y025051D01*
X006895Y025029D01*
X006882Y025008D01*
X006866Y024989D01*
X006847Y024973D01*
X006826Y024960D01*
X006804Y024951D01*
X006780Y024945D01*
X006755Y024943D01*
X006730Y024945D01*
X006706Y024951D01*
X006684Y024960D01*
X006663Y024973D01*
X006644Y024989D01*
X006628Y025008D01*
X006615Y025029D01*
X006606Y025051D01*
X006600Y025075D01*
X006598Y025100D01*
X003248Y026950D02*
X003250Y026975D01*
X003256Y026999D01*
X003265Y027021D01*
X003278Y027042D01*
X003294Y027061D01*
X003313Y027077D01*
X003334Y027090D01*
X003356Y027099D01*
X003380Y027105D01*
X003405Y027107D01*
X003430Y027105D01*
X003454Y027099D01*
X003476Y027090D01*
X003497Y027077D01*
X003516Y027061D01*
X003532Y027042D01*
X003545Y027021D01*
X003554Y026999D01*
X003560Y026975D01*
X003562Y026950D01*
X003560Y026925D01*
X003554Y026901D01*
X003545Y026879D01*
X003532Y026858D01*
X003516Y026839D01*
X003497Y026823D01*
X003476Y026810D01*
X003454Y026801D01*
X003430Y026795D01*
X003405Y026793D01*
X003380Y026795D01*
X003356Y026801D01*
X003334Y026810D01*
X003313Y026823D01*
X003294Y026839D01*
X003278Y026858D01*
X003265Y026879D01*
X003256Y026901D01*
X003250Y026925D01*
X003248Y026950D01*
X003248Y035050D02*
X003250Y035075D01*
X003256Y035099D01*
X003265Y035121D01*
X003278Y035142D01*
X003294Y035161D01*
X003313Y035177D01*
X003334Y035190D01*
X003356Y035199D01*
X003380Y035205D01*
X003405Y035207D01*
X003430Y035205D01*
X003454Y035199D01*
X003476Y035190D01*
X003497Y035177D01*
X003516Y035161D01*
X003532Y035142D01*
X003545Y035121D01*
X003554Y035099D01*
X003560Y035075D01*
X003562Y035050D01*
X003560Y035025D01*
X003554Y035001D01*
X003545Y034979D01*
X003532Y034958D01*
X003516Y034939D01*
X003497Y034923D01*
X003476Y034910D01*
X003454Y034901D01*
X003430Y034895D01*
X003405Y034893D01*
X003380Y034895D01*
X003356Y034901D01*
X003334Y034910D01*
X003313Y034923D01*
X003294Y034939D01*
X003278Y034958D01*
X003265Y034979D01*
X003256Y035001D01*
X003250Y035025D01*
X003248Y035050D01*
X003708Y011600D02*
X003710Y011627D01*
X003716Y011654D01*
X003725Y011680D01*
X003738Y011704D01*
X003754Y011727D01*
X003773Y011746D01*
X003795Y011763D01*
X003819Y011777D01*
X003844Y011787D01*
X003871Y011794D01*
X003898Y011797D01*
X003926Y011796D01*
X003953Y011791D01*
X003979Y011783D01*
X004003Y011771D01*
X004026Y011755D01*
X004047Y011737D01*
X004064Y011716D01*
X004079Y011692D01*
X004090Y011667D01*
X004098Y011641D01*
X004102Y011614D01*
X004102Y011586D01*
X004098Y011559D01*
X004090Y011533D01*
X004079Y011508D01*
X004064Y011484D01*
X004047Y011463D01*
X004026Y011445D01*
X004004Y011429D01*
X003979Y011417D01*
X003953Y011409D01*
X003926Y011404D01*
X003898Y011403D01*
X003871Y011406D01*
X003844Y011413D01*
X003819Y011423D01*
X003795Y011437D01*
X003773Y011454D01*
X003754Y011473D01*
X003738Y011496D01*
X003725Y011520D01*
X003716Y011546D01*
X003710Y011573D01*
X003708Y011600D01*
D11*
X003905Y014198D02*
X003905Y008002D01*
X000125Y008002D01*
X000125Y014198D01*
X003905Y014198D01*
X003994Y015477D02*
X002714Y015477D01*
X002714Y018823D01*
X003994Y018823D01*
X003994Y015477D01*
X004310Y020643D02*
X000491Y020643D01*
X000491Y023557D01*
X004310Y023557D01*
X004310Y020643D01*
X003905Y024450D02*
X002905Y024450D01*
X002905Y027450D01*
X003905Y027450D01*
X003905Y024450D01*
X006192Y024301D02*
X006192Y036899D01*
X008180Y036899D01*
X008180Y034143D01*
X011329Y034143D01*
X011329Y037687D01*
X008180Y037687D01*
X008180Y036899D01*
X013318Y036899D01*
X013318Y024301D01*
X006192Y024301D01*
X004310Y028693D02*
X004310Y031607D01*
X000491Y031607D01*
X000491Y028693D01*
X004310Y028693D01*
X003905Y032550D02*
X002905Y032550D01*
X002905Y035550D01*
X003905Y035550D01*
X003905Y032550D01*
X012780Y020300D02*
X013030Y020300D01*
X013030Y019800D01*
X012780Y019800D01*
X012780Y020300D01*
X013405Y019600D02*
X013405Y005600D01*
X009405Y005600D01*
X009405Y019600D01*
X010905Y019600D01*
X011405Y019100D01*
X011905Y019600D01*
X013405Y019600D01*
X011905Y019600D02*
X010905Y019600D01*
X010951Y019198D02*
X010558Y019198D01*
X010558Y019002D01*
X010951Y019002D01*
X010951Y019198D01*
X013786Y012100D02*
X015023Y012100D01*
X015023Y009100D01*
X013786Y009100D01*
X013786Y012100D01*
X018117Y016399D02*
X018117Y003801D01*
X018905Y003801D01*
X028668Y003801D01*
X028668Y016399D01*
X023393Y016399D01*
X023393Y010907D01*
X020834Y010907D01*
X020834Y009293D01*
X023393Y009293D01*
X023393Y010907D01*
X023393Y009293D02*
X023393Y003801D01*
X018905Y003801D02*
X018905Y016399D01*
X023393Y016399D01*
X023027Y018909D02*
X019405Y018909D01*
X018499Y018909D01*
X018499Y023791D01*
X023027Y023791D01*
X023027Y021350D01*
X023027Y018909D01*
X018905Y016399D02*
X018117Y016399D01*
X020405Y012350D02*
X020405Y011850D01*
X019905Y012100D01*
X020405Y012350D01*
X019405Y025909D02*
X018499Y025909D01*
X018499Y030791D01*
X023027Y030791D01*
X023027Y028350D01*
X023027Y025909D01*
X019405Y025909D01*
X017282Y036502D02*
X014086Y036502D01*
X014086Y038502D01*
X017282Y038502D01*
X017282Y036502D01*
X009205Y007225D02*
X008705Y007225D01*
X008705Y006975D01*
X009205Y006975D01*
X009205Y007225D01*
X009408Y003069D02*
X006212Y003069D01*
X006212Y001069D01*
X009408Y001069D01*
X009408Y003069D01*
X003505Y004200D02*
X003532Y004144D01*
X003563Y004089D01*
X003597Y004037D01*
X003634Y003987D01*
X003674Y003940D01*
X003717Y003895D01*
X003764Y003853D01*
X003812Y003813D01*
X003863Y003777D01*
X003916Y003745D01*
X003971Y003716D01*
X004028Y003690D01*
X004087Y003668D01*
X004146Y003650D01*
X004207Y003635D01*
X004268Y003625D01*
X004330Y003618D01*
X004393Y003615D01*
X004455Y003616D01*
X004517Y003621D01*
X004579Y003630D01*
X004640Y003643D01*
X004700Y003660D01*
X004759Y003681D01*
X004816Y003705D01*
X004872Y003733D01*
X004926Y003764D01*
X004978Y003799D01*
X005028Y003837D01*
X005075Y003878D01*
X005119Y003921D01*
X005160Y003968D01*
X005199Y004017D01*
X005234Y004068D01*
X005266Y004122D01*
X005295Y004177D01*
X005320Y004235D01*
X005341Y004293D01*
X005359Y004353D01*
X005372Y004414D01*
X005382Y004476D01*
X005388Y004538D01*
X005390Y004600D01*
X005388Y004662D01*
X005382Y004724D01*
X005372Y004786D01*
X005359Y004847D01*
X005341Y004907D01*
X005320Y004965D01*
X005295Y005023D01*
X005266Y005078D01*
X005234Y005132D01*
X005199Y005183D01*
X005160Y005232D01*
X005119Y005279D01*
X005075Y005322D01*
X005028Y005363D01*
X004978Y005401D01*
X004926Y005436D01*
X004872Y005467D01*
X004816Y005495D01*
X004759Y005519D01*
X004700Y005540D01*
X004640Y005557D01*
X004579Y005570D01*
X004517Y005579D01*
X004455Y005584D01*
X004393Y005585D01*
X004330Y005582D01*
X004268Y005575D01*
X004207Y005565D01*
X004146Y005550D01*
X004087Y005532D01*
X004028Y005510D01*
X003971Y005484D01*
X003916Y005455D01*
X003863Y005423D01*
X003812Y005387D01*
X003764Y005347D01*
X003717Y005305D01*
X003674Y005260D01*
X003634Y005213D01*
X003597Y005163D01*
X003563Y005111D01*
X003532Y005056D01*
X003505Y005000D01*
X003505Y004200D01*
X003505Y006200D02*
X003505Y007000D01*
X003532Y007056D01*
X003563Y007111D01*
X003597Y007163D01*
X003634Y007213D01*
X003674Y007260D01*
X003717Y007305D01*
X003764Y007347D01*
X003812Y007387D01*
X003863Y007423D01*
X003916Y007455D01*
X003971Y007484D01*
X004028Y007510D01*
X004087Y007532D01*
X004146Y007550D01*
X004207Y007565D01*
X004268Y007575D01*
X004330Y007582D01*
X004393Y007585D01*
X004455Y007584D01*
X004517Y007579D01*
X004579Y007570D01*
X004640Y007557D01*
X004700Y007540D01*
X004759Y007519D01*
X004816Y007495D01*
X004872Y007467D01*
X004926Y007436D01*
X004978Y007401D01*
X005028Y007363D01*
X005075Y007322D01*
X005119Y007279D01*
X005160Y007232D01*
X005199Y007183D01*
X005234Y007132D01*
X005266Y007078D01*
X005295Y007023D01*
X005320Y006965D01*
X005341Y006907D01*
X005359Y006847D01*
X005372Y006786D01*
X005382Y006724D01*
X005388Y006662D01*
X005390Y006600D01*
X005388Y006538D01*
X005382Y006476D01*
X005372Y006414D01*
X005359Y006353D01*
X005341Y006293D01*
X005320Y006235D01*
X005295Y006177D01*
X005266Y006122D01*
X005234Y006068D01*
X005199Y006017D01*
X005160Y005968D01*
X005119Y005921D01*
X005075Y005878D01*
X005028Y005837D01*
X004978Y005799D01*
X004926Y005764D01*
X004872Y005733D01*
X004816Y005705D01*
X004759Y005681D01*
X004700Y005660D01*
X004640Y005643D01*
X004579Y005630D01*
X004517Y005621D01*
X004455Y005616D01*
X004393Y005615D01*
X004330Y005618D01*
X004268Y005625D01*
X004207Y005635D01*
X004146Y005650D01*
X004087Y005668D01*
X004028Y005690D01*
X003971Y005716D01*
X003916Y005745D01*
X003863Y005777D01*
X003812Y005813D01*
X003764Y005853D01*
X003717Y005895D01*
X003674Y005940D01*
X003634Y005987D01*
X003597Y006037D01*
X003563Y006089D01*
X003532Y006144D01*
X003505Y006200D01*
D12*
X009665Y012187D02*
X009741Y012110D01*
X009818Y012187D01*
X009818Y012340D01*
X009895Y012302D02*
X009895Y012263D01*
X009933Y012225D01*
X010010Y012225D01*
X010048Y012187D01*
X010048Y012148D01*
X010010Y012110D01*
X009933Y012110D01*
X009895Y012148D01*
X009895Y012302D02*
X009933Y012340D01*
X010010Y012340D01*
X010048Y012302D01*
X010125Y012302D02*
X010125Y012263D01*
X010163Y012225D01*
X010240Y012225D01*
X010278Y012187D01*
X010278Y012148D01*
X010240Y012110D01*
X010163Y012110D01*
X010125Y012148D01*
X010125Y012302D02*
X010163Y012340D01*
X010240Y012340D01*
X010278Y012302D01*
X009665Y012340D02*
X009665Y012187D01*
X012665Y010340D02*
X012665Y010187D01*
X012741Y010110D01*
X012818Y010187D01*
X012818Y010340D01*
X012895Y010302D02*
X012895Y010263D01*
X012933Y010225D01*
X013010Y010225D01*
X013048Y010187D01*
X013048Y010148D01*
X013010Y010110D01*
X012933Y010110D01*
X012895Y010148D01*
X012895Y010302D02*
X012933Y010340D01*
X013010Y010340D01*
X013048Y010302D01*
X013125Y010302D02*
X013125Y010263D01*
X013163Y010225D01*
X013240Y010225D01*
X013278Y010187D01*
X013278Y010148D01*
X013240Y010110D01*
X013163Y010110D01*
X013125Y010148D01*
X013125Y010302D02*
X013163Y010340D01*
X013240Y010340D01*
X013278Y010302D01*
X013220Y018110D02*
X013143Y018110D01*
X013105Y018148D01*
X013028Y018148D02*
X012990Y018110D01*
X012913Y018110D01*
X012875Y018148D01*
X012798Y018187D02*
X012798Y018340D01*
X012875Y018302D02*
X012875Y018263D01*
X012913Y018225D01*
X012990Y018225D01*
X013028Y018187D01*
X013028Y018148D01*
X013105Y018263D02*
X013143Y018225D01*
X013220Y018225D01*
X013259Y018187D01*
X013259Y018148D01*
X013220Y018110D01*
X013105Y018263D02*
X013105Y018302D01*
X013143Y018340D01*
X013220Y018340D01*
X013259Y018302D01*
X013028Y018302D02*
X012990Y018340D01*
X012913Y018340D01*
X012875Y018302D01*
X012798Y018187D02*
X012721Y018110D01*
X012645Y018187D01*
X012645Y018340D01*
X012568Y018263D02*
X012568Y018110D01*
X012568Y018225D02*
X012415Y018225D01*
X012415Y018263D02*
X012491Y018340D01*
X012568Y018263D01*
X012415Y018263D02*
X012415Y018110D01*
D13*
X002385Y011234D02*
X002308Y011234D01*
X002231Y011234D02*
X002078Y011387D01*
X002001Y011387D01*
X001924Y011311D01*
X001924Y011157D01*
X002001Y011080D01*
X002385Y010927D02*
X002385Y010620D01*
X001924Y010620D01*
M02*
