G75*
G70*
%OFA0B0*%
%FSLAX24Y24*%
%IPPOS*%
%LPD*%
%AMOC8*
5,1,8,0,0,1.08239X$1,22.5*
%
%ADD10C,0.0474*%
%ADD11C,0.0986*%
%ADD12C,0.0395*%
%ADD13R,0.2442X0.2442*%
D10*
X007810Y001569D03*
X007810Y002569D03*
X010905Y001950D03*
X010905Y004350D03*
X003905Y011600D03*
X015684Y037002D03*
X015684Y038002D03*
D11*
X016684Y038002D03*
X016684Y037002D03*
X014684Y037002D03*
X014684Y038002D03*
X012755Y036100D03*
X012755Y035100D03*
X012755Y034100D03*
X012755Y033100D03*
X012755Y032100D03*
X012755Y030100D03*
X012755Y029100D03*
X012755Y028100D03*
X012755Y027100D03*
X012755Y026100D03*
X012755Y025100D03*
X012905Y019100D03*
X012905Y017100D03*
X012905Y016100D03*
X012905Y015100D03*
X012905Y014100D03*
X012905Y013100D03*
X012905Y012100D03*
X012905Y011100D03*
X014405Y011600D03*
X012905Y009100D03*
X012905Y008100D03*
X012905Y007100D03*
X012905Y006100D03*
X009905Y006100D03*
X009905Y007100D03*
X009905Y008100D03*
X009905Y009100D03*
X009905Y010100D03*
X009905Y011100D03*
X009905Y013100D03*
X009905Y014100D03*
X009905Y015100D03*
X009905Y016100D03*
X009905Y017100D03*
X009905Y018100D03*
X009905Y019100D03*
X008405Y018100D03*
X007405Y017100D03*
X004755Y019750D03*
X005755Y020750D03*
X003405Y021608D03*
X003405Y022592D03*
X003405Y024950D03*
X003405Y025950D03*
X003405Y029658D03*
X003405Y030642D03*
X003405Y033050D03*
X003405Y034050D03*
X006755Y034100D03*
X006755Y035100D03*
X006755Y036100D03*
X006755Y033100D03*
X006755Y032100D03*
X006755Y031100D03*
X006755Y030100D03*
X006755Y029100D03*
X006755Y028100D03*
X006755Y027100D03*
X006755Y026100D03*
X003305Y018150D03*
X003305Y017150D03*
X003305Y016150D03*
X003905Y013600D03*
X003905Y012600D03*
X003905Y010600D03*
X003905Y009600D03*
X003905Y008600D03*
X003905Y006600D03*
X004905Y006600D03*
X004905Y004600D03*
X003905Y004600D03*
X006810Y002569D03*
X006810Y001569D03*
X008810Y001569D03*
X008810Y002569D03*
X018405Y008100D03*
X018405Y009100D03*
X018405Y010100D03*
X018405Y011100D03*
X019405Y011100D03*
X019405Y010100D03*
X019405Y009100D03*
X019405Y008100D03*
X019405Y020858D03*
X019405Y021842D03*
X019405Y022826D03*
X019405Y027858D03*
X019405Y028842D03*
X019405Y029826D03*
X019005Y033100D03*
X019005Y034100D03*
D12*
X019405Y026874D03*
X019405Y019874D03*
X019405Y012100D03*
X018405Y012100D03*
X014405Y009600D03*
X012905Y010100D03*
X009905Y012100D03*
X012905Y018100D03*
X006755Y025100D03*
X003405Y026950D03*
X003405Y035050D03*
X012755Y031100D03*
D13*
X003873Y002069D03*
X019621Y002069D03*
X019621Y037502D03*
X003873Y037502D03*
M02*
