%
M48
M72
T01C0.0315
T02C0.0394
%
T01
X3873Y2069
X3905Y4600
X4905Y4600
X4905Y6600
X3905Y6600
X9905Y6100
X9905Y7100
X9905Y8100
X9905Y9100
X9905Y10100
X9905Y11100
X9905Y12100
X9905Y13100
X9905Y14100
X9905Y15100
X9905Y16100
X9905Y17100
X9905Y18100
X9905Y19100
X12905Y19100
X12905Y18100
X12905Y17100
X12905Y16100
X12905Y15100
X12905Y14100
X12905Y13100
X12905Y12100
X12905Y11100
X12905Y10100
X12905Y9100
X12905Y8100
X12905Y7100
X12905Y6100
X14405Y9600
X14405Y11600
X18405Y11100
X18405Y12100
X19405Y12100
X19405Y11100
X19405Y10100
X19405Y9100
X19405Y8100
X18405Y8100
X18405Y9100
X18405Y10100
X19621Y2069
X19405Y19874
X19405Y20858
X19405Y21842
X19405Y22826
X19405Y26874
X19405Y27858
X19405Y28842
X19405Y29826
X19005Y33100
X19005Y34100
X19621Y37502
X12755Y36100
X12755Y35100
X12755Y34100
X12755Y33100
X12755Y32100
X12755Y31100
X12755Y30100
X12755Y29100
X12755Y28100
X12755Y27100
X12755Y26100
X12755Y25100
X6755Y25100
X6755Y26100
X6755Y27100
X6755Y28100
X6755Y29100
X6755Y30100
X6755Y31100
X6755Y32100
X6755Y33100
X6755Y34100
X6755Y35100
X6755Y36100
X3873Y37502
X3405Y35050
X3405Y34050
X3405Y33050
X3405Y30642
X3405Y29658
X3405Y26950
X3405Y25950
X3405Y24950
X3405Y22592
X3405Y21608
X3305Y18150
X3305Y17150
X3305Y16150
T02
X3905Y13600
X3905Y12600
X3905Y11600
X3905Y10600
X3905Y9600
X3905Y8600
X6810Y2569
X6810Y1569
X7810Y1569
X7810Y2569
X8810Y2569
X8810Y1569
X10905Y1950
X10905Y4350
X7405Y17100
X8405Y18100
X5755Y20750
X4755Y19750
X14684Y37002
X14684Y38002
X15684Y38002
X16684Y38002
X16684Y37002
X15684Y37002
M30
