<svg id="レイヤー_1" data-name="レイヤー 1" xmlns="http://www.w3.org/2000/svg" viewBox="0 0 553 508.33"><defs><style>.cls-1,.cls-12{fill:#fff;}.cls-19,.cls-2,.cls-4,.cls-5{font-size:11px;}.cls-11,.cls-19,.cls-2,.cls-4,.cls-5{fill:#231815;}.cls-2,.cls-21,.cls-5{font-family:Meiryo, Meiryo;}.cls-14,.cls-15,.cls-16,.cls-17,.cls-18,.cls-3,.cls-8,.cls-9{fill:none;}.cls-12,.cls-3,.cls-8,.cls-9{stroke:#231815;}.cls-12,.cls-14,.cls-15,.cls-16,.cls-17,.cls-18,.cls-3,.cls-8,.cls-9{stroke-miterlimit:10;}.cls-4{font-family:KozGoPr6N-Regular-90ms-RKSJ-H, Kozuka Gothic Pr6N;}.cls-5{letter-spacing:0.02em;}.cls-6{letter-spacing:0.27em;}.cls-7{letter-spacing:0.02em;}.cls-8{stroke-dasharray:7.1 7.1;}.cls-9{stroke-dasharray:7.21 7.21;}.cls-10{font-size:12px;fill:#e60012;font-family:Meiryo-Bold, Meiryo;}.cls-10,.cls-13,.cls-20{font-weight:700;}.cls-13,.cls-19{font-family:Meiryo-BoldItalic, Meiryo;}.cls-13,.cls-20{font-style:italic;text-decoration:underline;}.cls-14,.cls-15,.cls-16,.cls-17,.cls-18{stroke:#e60012;stroke-width:0.5px;}.cls-15{stroke-dasharray:6.99 6.99;}.cls-16{stroke-dasharray:7.22 7.22;}.cls-17{stroke-dasharray:6.82 6.82;}.cls-18{stroke-dasharray:6.89 6.89;}</style></defs><title>アートボード 1</title><rect class="cls-1" width="553" height="508.33"/><text class="cls-2" transform="translate(247.31 47.04)">2</text><circle class="cls-3" cx="250.73" cy="43.51" r="12.33"/><text class="cls-2" transform="translate(401.14 347.08)">2</text><circle class="cls-3" cx="404.56" cy="343.54" r="12.33"/><text class="cls-4" transform="translate(123.65 25.5)">start</text><path class="cls-3" d="M112.25,31a9,9,0,0,1,0-18H157a9,9,0,0,1,0,18Z"/><text class="cls-2" transform="translate(131.39 359.41)">1</text><circle class="cls-3" cx="134.62" cy="355.87" r="12.33"/><text class="cls-5" transform="translate(125.83 408.9)">abs() : 引数の絶対値を返す<tspan x="0" y="15">sgn() : 引数が正のときは 1</tspan><tspan class="cls-6" x="143.36" y="15">,</tspan><tspan class="cls-7" x="150.17" y="15">負のときは -1 を返す</tspan><tspan x="0" y="30">operate_motor() : MD への信号に変更を反映する</tspan><tspan x="0" y="60">pwm : 出力する PWM 波形のデューティー比</tspan><tspan x="0" y="75">input_pwm : マスターから指定されたデューティー比</tspan></text><polyline class="cls-3" points="416.89 488.17 416.89 491.67 413.39 491.67"/><line class="cls-8" x1="406.29" y1="491.67" x2="125.88" y2="491.67"/><polyline class="cls-3" points="122.33 491.67 118.83 491.67 118.83 488.17"/><line class="cls-9" x1="118.83" y1="480.95" x2="118.83" y2="398"/><polyline class="cls-3" points="118.83 394.4 118.83 390.9 122.33 390.9"/><line class="cls-8" x1="129.43" y1="390.9" x2="409.84" y2="390.9"/><polyline class="cls-3" points="413.39 390.9 416.89 390.9 416.89 394.4"/><line class="cls-9" x1="416.89" y1="401.61" x2="416.89" y2="484.56"/><text class="cls-10" transform="translate(27.47 150.83)">A</text><text class="cls-10" transform="translate(328.3 278.91)">C</text><text class="cls-10" transform="translate(327.04 78.83)">B</text><text class="cls-2" transform="translate(401.33 25.54)">1</text><circle class="cls-3" cx="404.56" cy="22" r="12.33"/><line class="cls-3" x1="134.62" y1="266.43" x2="134.62" y2="340.65"/><polygon class="cls-11" points="131.44 334.74 132.38 334.4 134.62 340.55 136.86 334.4 137.8 334.74 134.62 343.48 131.44 334.74"/><line class="cls-3" x1="134.62" y1="142.68" x2="134.62" y2="263.6"/><polygon class="cls-11" points="131.44 257.69 132.38 257.35 134.62 263.5 136.86 257.35 137.8 257.69 134.62 266.43 131.44 257.69"/><line class="cls-3" x1="134.62" y1="72.87" x2="134.62" y2="139.85"/><polygon class="cls-11" points="131.44 133.94 132.38 133.6 134.62 139.75 136.86 133.6 137.8 133.94 134.62 142.68 131.44 133.94"/><line class="cls-3" x1="134.62" y1="31" x2="134.62" y2="70.05"/><polygon class="cls-11" points="131.44 64.14 132.38 63.8 134.62 69.95 136.86 63.8 137.8 64.14 134.62 72.88 131.44 64.14"/><rect class="cls-12" x="73.2" y="73.09" width="122.85" height="27.12"/><text class="cls-2" transform="translate(82.43 90.59)">pwm ← input_pwm</text><polygon class="cls-12" points="230.05 189.9 135.39 234.34 39.2 186.74 133.86 142.3 230.05 189.9"/><text class="cls-2" transform="translate(63 191.77)">abs( pwm ) &gt; <tspan class="cls-13" x="78.42" y="0">PWM 最大値</tspan></text><rect class="cls-12" x="31.91" y="266.43" width="205.43" height="24.96"/><text class="cls-2" transform="translate(39.48 282.89)">pwm ← <tspan class="cls-13" x="44.89" y="0">PWM 最大値</tspan><tspan x="110.71" y="0" xml:space="preserve"> × sgn( pwm )</tspan></text><polyline class="cls-3" points="230.05 189.9 271.5 189.9 271.5 308 137.45 308"/><polygon class="cls-11" points="143.36 304.82 143.7 305.76 137.55 308 143.7 310.24 143.36 311.18 134.62 308 143.36 304.82"/><text class="cls-5" transform="translate(234.87 182.77)">NO</text><text class="cls-5" transform="translate(478.54 107.11)">NO</text><text class="cls-5" transform="translate(102.08 243.08)">YES</text><text class="cls-5" transform="translate(360 161.08)">YES</text><line class="cls-3" x1="238.39" y1="43.51" x2="137.45" y2="43.51"/><polygon class="cls-11" points="143.36 40.33 143.7 41.27 137.55 43.51 143.7 45.75 143.36 46.69 134.62 43.51 143.36 40.33"/><polyline class="cls-14" points="294 312.5 294 316 290.5 316"/><line class="cls-15" x1="283.51" y1="316" x2="21.49" y2="316"/><polyline class="cls-14" points="18 316 14.5 316 14.5 312.5"/><line class="cls-16" x1="14.5" y1="305.28" x2="14.5" y2="135.66"/><polyline class="cls-14" points="14.5 132.05 14.5 128.55 18 128.55"/><line class="cls-15" x1="24.99" y1="128.55" x2="287.01" y2="128.55"/><polyline class="cls-14" points="290.5 128.55 294 128.55 294 132.05"/><line class="cls-16" x1="294" y1="139.27" x2="294" y2="308.89"/><polyline class="cls-14" points="535.87 235.97 535.87 239.47 532.37 239.47"/><line class="cls-17" x1="525.55" y1="239.47" x2="324.28" y2="239.47"/><polyline class="cls-14" points="320.87 239.47 317.37 239.47 317.37 235.97"/><line class="cls-18" x1="317.37" y1="229.08" x2="317.37" y2="67.14"/><polyline class="cls-14" points="317.37 63.7 317.37 60.2 320.87 60.2"/><line class="cls-17" x1="327.7" y1="60.2" x2="528.96" y2="60.2"/><polyline class="cls-14" points="532.37 60.2 535.87 60.2 535.87 63.7"/><line class="cls-18" x1="535.87" y1="70.59" x2="535.87" y2="232.53"/><line class="cls-3" x1="404.56" y1="263.05" x2="404.56" y2="328.38"/><polygon class="cls-11" points="401.38 322.47 402.32 322.13 404.56 328.29 406.8 322.13 407.74 322.47 404.56 331.21 401.38 322.47"/><line class="cls-3" x1="404.56" y1="180.89" x2="404.56" y2="260.22"/><polygon class="cls-11" points="401.38 254.31 402.32 253.97 404.56 260.12 406.8 253.97 407.74 254.31 404.56 263.05 401.38 254.31"/><line class="cls-3" x1="404.56" y1="80.11" x2="404.56" y2="178.06"/><polygon class="cls-11" points="401.38 172.15 402.32 171.81 404.56 177.97 406.8 171.81 407.74 172.15 404.56 180.89 401.38 172.15"/><line class="cls-3" x1="404.56" y1="34.34" x2="404.56" y2="77.29"/><polygon class="cls-11" points="401.38 71.38 402.32 71.04 404.56 77.19 406.8 71.04 407.74 71.38 404.56 80.11 401.38 71.38"/><polygon class="cls-12" points="476.69 115.81 405.13 149.4 332.43 113.42 403.98 79.83 476.69 115.81"/><text class="cls-19" transform="translate(373.09 117.61)"><tspan class="cls-20">有効化</tspan><tspan class="cls-21" x="33" y="0" xml:space="preserve"> == 0</tspan></text><rect class="cls-12" x="369.57" y="180.89" width="74.83" height="22.67"/><text class="cls-2" transform="translate(381.12 196.05)">pwm ← 0</text><rect class="cls-12" x="343.73" y="263.05" width="121.65" height="22.67"/><line class="cls-12" x1="354.55" y1="263.05" x2="354.55" y2="285.72"/><line class="cls-12" x1="455.05" y1="263.08" x2="455.05" y2="285.72"/><text class="cls-2" transform="translate(360 278.21)">operate_motor()</text><polyline class="cls-3" points="476.69 115.81 519.5 115.81 519.5 226.5 407.38 226.5"/><polygon class="cls-11" points="413.3 223.32 413.64 224.26 407.48 226.5 413.64 228.74 413.3 229.68 404.56 226.5 413.3 223.32"/></svg>