<svg id="レイヤー_1" data-name="レイヤー 1" xmlns="http://www.w3.org/2000/svg" viewBox="0 0 881.33 595.28"><defs><style>.cls-1,.cls-2{fill:#fff;}.cls-16,.cls-17,.cls-2,.cls-5{stroke:#231815;}.cls-16,.cls-17,.cls-18,.cls-19,.cls-2,.cls-20,.cls-21,.cls-22,.cls-23,.cls-24,.cls-25,.cls-26,.cls-27,.cls-28,.cls-29,.cls-30,.cls-5{stroke-miterlimit:10;}.cls-11,.cls-12,.cls-3,.cls-8{font-size:11px;}.cls-11,.cls-12,.cls-15,.cls-3,.cls-6,.cls-8{fill:#231815;}.cls-10,.cls-12,.cls-3{font-family:Meiryo, Meiryo;}.cls-4,.cls-8{font-family:Meiryo-BoldItalic, Meiryo;}.cls-31,.cls-4,.cls-9{font-weight:700;}.cls-4,.cls-9{font-style:italic;text-decoration:underline;}.cls-16,.cls-17,.cls-18,.cls-19,.cls-20,.cls-21,.cls-22,.cls-23,.cls-24,.cls-25,.cls-26,.cls-27,.cls-28,.cls-29,.cls-30,.cls-5{fill:none;}.cls-7{letter-spacing:2.93em;}.cls-11{font-family:KozGoPr6N-Regular-90ms-RKSJ-H, Kozuka Gothic Pr6N;}.cls-12{letter-spacing:0.02em;}.cls-13{letter-spacing:0.27em;}.cls-14,.cls-15{letter-spacing:0.02em;}.cls-16{stroke-dasharray:7.07 7.07;}.cls-17{stroke-dasharray:6.87 6.87;}.cls-18,.cls-19,.cls-20,.cls-21,.cls-22,.cls-23,.cls-24,.cls-25,.cls-26,.cls-27,.cls-28,.cls-29,.cls-30{stroke:#e60012;stroke-width:0.5px;}.cls-19{stroke-dasharray:6.84 6.84;}.cls-20{stroke-dasharray:6.97 6.97;}.cls-21{stroke-dasharray:7.1 7.1;}.cls-22{stroke-dasharray:6.86 6.86;}.cls-23{stroke-dasharray:7.01 7.01;}.cls-24{stroke-dasharray:6.9 6.9;}.cls-25{stroke-dasharray:7.06 7.06;}.cls-26{stroke-dasharray:7.02 7.02;}.cls-27{stroke-dasharray:7.01 7.01;}.cls-28{stroke-dasharray:6.97 6.97;}.cls-29{stroke-dasharray:6.86 6.86;}.cls-30{stroke-dasharray:6.96 6.96;}.cls-31{font-size:12px;fill:#e60012;font-family:Meiryo-Bold, Meiryo;}</style></defs><title>アートボード 1</title><rect class="cls-1" x="0.54" y="0.1" width="880.62" height="595.15"/><rect class="cls-2" x="80.27" y="67.85" width="159.35" height="22.67"/><text class="cls-3" transform="translate(88.02 83.01)">pwm ← <tspan class="cls-4" x="44.89" y="0">ゼロ点合わせ PWM</tspan></text><line class="cls-5" x1="159.95" y1="65.02" x2="159.95" y2="44.16"/><polygon class="cls-6" points="163.13 59.11 162.19 58.77 159.95 64.92 157.71 58.77 156.77 59.11 159.95 67.85 163.13 59.11"/><line class="cls-5" x1="159.95" y1="102.72" x2="159.95" y2="90.52"/><polygon class="cls-6" points="163.13 96.81 162.19 96.46 159.95 102.62 157.71 96.46 156.77 96.81 159.95 105.54 163.13 96.81"/><line class="cls-5" x1="159.38" y1="249.36" x2="159.52" y2="216.23"/><polygon class="cls-6" points="162.58 243.46 161.64 243.11 159.38 249.26 157.16 243.09 156.22 243.43 159.37 252.18 162.58 243.46"/><line class="cls-5" x1="159.77" y1="337.87" x2="159.36" y2="252.18"/><polygon class="cls-6" points="162.92 331.94 161.98 331.61 159.77 337.77 157.5 331.63 156.56 331.97 159.78 340.69 162.92 331.94"/><line class="cls-5" x1="159.67" y1="374.05" x2="159.78" y2="340.69"/><polygon class="cls-6" points="162.87 368.15 161.93 367.8 159.67 373.95 157.45 367.79 156.51 368.13 159.66 376.87 162.87 368.15"/><line class="cls-5" x1="159.42" y1="418.14" x2="159.66" y2="376.87"/><polygon class="cls-6" points="162.64 412.25 161.7 411.9 159.42 418.05 157.22 411.88 156.28 412.21 159.41 420.97 162.64 412.25"/><line class="cls-5" x1="159.94" y1="513.92" x2="159.41" y2="420.97"/><polygon class="cls-6" points="163.08 508 162.14 507.66 159.94 513.83 157.66 507.68 156.72 508.03 159.95 516.75 163.08 508"/><rect class="cls-2" x="29.62" y="376.5" width="260.66" height="29.84"/><text class="cls-3" transform="translate(38.86 388.54)">pwm ← <tspan class="cls-4" x="44.89" y="0">比例ゲイン</tspan><tspan x="99.89" y="0" xml:space="preserve"> × 0.001 × cnt_diff </tspan><tspan class="cls-7" x="0" y="13" xml:space="preserve">		</tspan><tspan x="72" y="13">+ </tspan><tspan class="cls-4" x="84.58" y="13">PWM 最小値</tspan><tspan x="150.41" y="13" xml:space="preserve"> × sgn( cnt_diff )</tspan></text><line class="cls-5" x1="159.95" y1="551.84" x2="159.95" y2="516.75"/><polygon class="cls-6" points="163.13 545.93 162.19 545.59 159.95 551.74 157.71 545.59 156.77 545.93 159.95 554.66 163.13 545.93"/><line class="cls-5" x1="443.06" y1="65.7" x2="443.06" y2="52.66"/><polygon class="cls-6" points="446.24 59.79 445.3 59.45 443.06 65.61 440.82 59.45 439.88 59.79 443.06 68.53 446.24 59.79"/><line class="cls-5" x1="443.06" y1="155.15" x2="443.06" y2="68.53"/><polygon class="cls-6" points="446.24 149.24 445.3 148.9 443.06 155.05 440.82 148.9 439.88 149.24 443.06 157.98 446.24 149.24"/><line class="cls-5" x1="443.06" y1="199.2" x2="443.06" y2="157.98"/><polygon class="cls-6" points="446.24 193.29 445.3 192.95 443.06 199.1 440.82 192.95 439.88 193.29 443.06 202.03 446.24 193.29"/><line class="cls-5" x1="443.06" y1="342.35" x2="443.06" y2="202.03"/><polygon class="cls-6" points="446.24 336.44 445.3 336.1 443.06 342.25 440.82 336.1 439.88 336.44 443.06 345.18 446.24 336.44"/><line class="cls-5" x1="443.06" y1="390.17" x2="443.06" y2="345.18"/><polygon class="cls-6" points="446.24 384.26 445.3 383.92 443.06 390.07 440.82 383.92 439.88 384.26 443.06 393 446.24 384.26"/><line class="cls-5" x1="443.06" y1="502.31" x2="443.06" y2="393"/><polygon class="cls-6" points="446.24 496.39 445.3 496.05 443.06 502.21 440.82 496.05 439.88 496.39 443.06 505.13 446.24 496.39"/><line class="cls-5" x1="443.06" y1="551.84" x2="443.06" y2="505.13"/><polygon class="cls-6" points="446.24 545.93 445.3 545.59 443.06 551.74 440.82 545.59 439.88 545.93 443.06 554.66 446.24 545.93"/><line class="cls-5" x1="716.81" y1="277.67" x2="716.81" y2="258.29"/><polygon class="cls-6" points="719.99 271.76 719.05 271.41 716.8 277.57 714.57 271.41 713.63 271.76 716.8 280.49 719.99 271.76"/><line class="cls-5" x1="716.81" y1="332.39" x2="716.81" y2="280.49"/><polygon class="cls-6" points="719.99 326.48 719.05 326.13 716.8 332.29 714.57 326.13 713.63 326.48 716.8 335.21 719.99 326.48"/><line class="cls-5" x1="716.81" y1="417.23" x2="716.81" y2="335.21"/><polygon class="cls-6" points="719.99 411.31 719.05 410.97 716.8 417.13 714.57 410.97 713.63 411.31 716.8 420.05 719.99 411.31"/><line class="cls-5" x1="716.81" y1="466.1" x2="716.81" y2="420.05"/><polygon class="cls-6" points="719.99 460.19 719.05 459.84 716.8 466 714.57 459.84 713.63 460.19 716.8 468.92 719.99 460.19"/><line class="cls-5" x1="716.81" y1="506.98" x2="716.81" y2="468.92"/><polygon class="cls-6" points="719.99 501.07 719.05 500.72 716.8 506.88 714.57 500.72 713.63 501.07 716.8 509.8 719.99 501.07"/><line class="cls-5" x1="716.81" y1="551.84" x2="716.81" y2="509.8"/><polygon class="cls-6" points="719.99 545.93 719.05 545.59 716.8 551.74 714.57 545.59 713.63 545.93 716.8 554.66 719.99 545.93"/><rect class="cls-2" x="345.62" y="345.18" width="194.88" height="22.67"/><text class="cls-3" transform="translate(355.79 360.34)">pwm ← <tspan class="cls-4" x="44.89" y="0">停止 PWM</tspan><tspan x="99.71" y="0" xml:space="preserve"> × sgn( pwm )</tspan></text><rect class="cls-2" x="407.96" y="505.13" width="70.2" height="22.67"/><text class="cls-3" transform="translate(417.2 520.3)">pwm ← 0</text><rect class="cls-2" x="362.33" y="157.98" width="161.46" height="22.67"/><text class="cls-3" transform="translate(370.9 173.14)">pwm ← 100 × sgn( pwm )</text><polygon class="cls-2" points="573.49 266.57 444.1 327.31 312.63 262.24 442.01 201.51 573.49 266.57"/><text class="cls-3" transform="translate(364.85 253.84)">abs( curr_rev ) &lt; <tspan class="cls-4" x="97.43" y="0">停止回転数</tspan></text><text class="cls-3" transform="translate(374.36 286.17)">abs( pwm ) &gt; <tspan class="cls-4" x="78.42" y="0">停止 PWM</tspan></text><text class="cls-3" transform="translate(430.06 270)">かつ</text><polygon class="cls-2" points="539.39 440.89 444.15 485.6 347.37 437.7 442.61 393 539.39 440.89"/><text class="cls-3" transform="translate(369.02 441.9)">abs( angle_diff ) &lt; <tspan class="cls-4" x="104.71" y="0">許容誤差</tspan></text><polygon class="cls-2" points="518.31 106.07 443.66 141.11 367.81 103.57 442.46 68.53 518.31 106.07"/><text class="cls-3" transform="translate(395.62 107.23)">abs( pwm ) &gt; 100</text><text class="cls-3" transform="translate(439.64 570.53)">2</text><circle class="cls-5" cx="443.06" cy="567" r="12.33"/><text class="cls-3" transform="translate(439.83 43.87)">1</text><circle class="cls-5" cx="443.06" cy="40.33" r="12.33"/><rect class="cls-2" x="679.39" y="420.05" width="74.83" height="22.67"/><text class="cls-3" transform="translate(690.95 435.22)">pwm ← 0</text><polygon class="cls-2" points="770.65 362.15 717.09 387.29 662.66 360.36 716.22 335.21 770.65 362.15"/><text class="cls-8" transform="translate(684.31 364.55)"><tspan class="cls-9">有効化</tspan><tspan class="cls-10" x="33" y="0" xml:space="preserve"> == 0</tspan></text><text class="cls-3" transform="translate(713.39 570.53)">3</text><circle class="cls-5" cx="716.81" cy="567" r="12.33"/><text class="cls-3" transform="translate(257.31 331.62)">3</text><circle class="cls-5" cx="260.73" cy="328.09" r="12.33"/><text class="cls-3" transform="translate(713.58 249.49)">2</text><circle class="cls-5" cx="716.81" cy="245.95" r="12.33"/><rect class="cls-2" x="626.59" y="280.49" width="181.25" height="22.67"/><line class="cls-2" x1="638.31" y1="280.49" x2="638.31" y2="303.16"/><line class="cls-2" x1="796.69" y1="280.49" x2="796.69" y2="303.16"/><text class="cls-3" transform="translate(647.49 295.66)">smoothen_pwm_change()</text><rect class="cls-2" x="666.84" y="468.92" width="99.83" height="22.67"/><line class="cls-2" x1="678.56" y1="468.92" x2="678.56" y2="491.59"/><line class="cls-2" x1="756.19" y1="468.92" x2="756.19" y2="491.59"/><text class="cls-3" transform="translate(685.31 484.09)">check_pol()</text><rect class="cls-2" x="655.96" y="509.8" width="121.65" height="22.67"/><line class="cls-2" x1="666.78" y1="509.8" x2="666.78" y2="532.47"/><line class="cls-2" x1="767.28" y1="509.83" x2="767.28" y2="532.47"/><text class="cls-3" transform="translate(672.24 524.97)">operate_motor()</text><text class="cls-11" transform="translate(148.98 38.66)">start</text><path class="cls-5" d="M137.58,44.16a9,9,0,0,1,0-18h44.75a9,9,0,0,1,0,18Z"/><rect class="cls-2" x="57.24" y="516.75" width="205.43" height="18.23"/><text class="cls-3" transform="translate(64.8 529.48)">pwm ← <tspan class="cls-4" x="44.89" y="0">PWM 最大値</tspan><tspan x="110.71" y="0" xml:space="preserve"> × sgn( pwm )</tspan></text><polygon class="cls-2" points="247.8 464.72 160.81 505.55 72.41 461.8 159.41 420.97 247.8 464.72"/><text class="cls-3" transform="translate(88.22 466.84)">abs( pwm ) &gt; <tspan class="cls-4" x="78.42" y="0">PWM 最大値</tspan></text><polygon class="cls-2" points="231.34 287.8 160.51 321.05 88.54 285.43 159.37 252.18 231.34 287.8"/><text class="cls-3" transform="translate(108.45 287.03)">リミットスイッチが<tspan x="11" y="12">押されているか</tspan></text><polygon class="cls-2" points="211.08 130.71 160.36 154.51 108.82 129.01 159.54 105.2 211.08 130.71"/><text class="cls-8" transform="translate(128.74 133.6)"><tspan class="cls-9">有効化</tspan><tspan class="cls-10" x="33" y="0" xml:space="preserve"> == 0</tspan></text><text class="cls-12" transform="translate(131.58 328.09)">YES</text><text class="cls-12" transform="translate(131.58 161.68)">YES</text><text class="cls-12" transform="translate(405.74 145.74)">YES</text><text class="cls-12" transform="translate(398.74 327.31)">YES</text><text class="cls-12" transform="translate(681.08 403.64)">YES</text><text class="cls-12" transform="translate(411.44 490.31)">YES</text><text class="cls-12" transform="translate(129.69 511.15)">YES</text><text class="cls-12" transform="translate(231.34 279.67)">NO</text><text class="cls-12" transform="translate(211.08 122.98)">NO</text><text class="cls-12" transform="translate(518.31 98.84)">NO</text><text class="cls-12" transform="translate(570.31 257.76)">NO</text><text class="cls-12" transform="translate(773.02 359.01)">NO</text><text class="cls-12" transform="translate(540.43 436.04)">NO</text><text class="cls-12" transform="translate(249.56 460.84)">NO</text><text class="cls-3" transform="translate(156.72 570.53)">1</text><circle class="cls-5" cx="159.95" cy="567" r="12.33"/><rect class="cls-2" x="99.12" y="214.2" width="121.65" height="22.67"/><line class="cls-2" x1="109.95" y1="214.2" x2="109.95" y2="236.87"/><line class="cls-2" x1="210.45" y1="214.23" x2="210.45" y2="236.87"/><text class="cls-3" transform="translate(115.4 229.36)">operate_motor()</text><polyline class="cls-5" points="231.34 287.8 255 287.03 255 55.63 162.78 55.63"/><polygon class="cls-6" points="168.69 52.44 169.03 53.38 162.88 55.63 169.03 57.87 168.69 58.8 159.95 55.63 168.69 52.44"/><polyline class="cls-5" points="247.8 464.72 294.17 465.17 294.17 540 162.78 540"/><polygon class="cls-6" points="168.69 536.82 169.03 537.76 162.88 540 169.03 542.24 168.69 543.18 159.95 540 168.69 536.82"/><polyline class="cls-5" points="518.31 106.03 559 106.03 559 189 445.88 189"/><polygon class="cls-6" points="451.8 185.82 452.14 186.76 445.98 189 452.14 191.24 451.8 192.18 443.06 189 451.8 185.82"/><polyline class="cls-5" points="573.49 266.33 589 266.33 589 377 445.88 377"/><polygon class="cls-6" points="451.8 373.82 452.14 374.76 445.98 377 452.14 379.24 451.8 380.18 443.06 377 451.8 373.82"/><polyline class="cls-5" points="539.39 440.83 565 440.83 565 538 445.88 538"/><polygon class="cls-6" points="451.8 534.82 452.14 535.76 445.98 538 452.14 540.24 451.8 541.18 443.06 538 451.8 534.82"/><polyline class="cls-5" points="770.65 362.15 816 362.75 816 451.75 719.63 451.75"/><polygon class="cls-6" points="725.54 448.57 725.88 449.51 719.73 451.75 725.88 453.99 725.54 454.93 716.8 451.75 725.54 448.57"/><text class="cls-12" transform="translate(591.5 31.97)">abs() : 引数の絶対値を返す<tspan x="0" y="15">sgn() : 引数が正のときは 1</tspan><tspan class="cls-13" x="143.36" y="15">,</tspan><tspan class="cls-14" x="150.17" y="15">負のときは -1 を返す</tspan><tspan x="0" y="30">operate_motor() : MD への信号に変更を反映する</tspan><tspan x="0" y="45">calc_encoder() : エンコーダのパルスから</tspan><tspan class="cls-1"><tspan x="0" y="60">calc_encoder() : </tspan><tspan class="cls-15" x="95.61" y="60">位置カウントと回転数を計算する</tspan></tspan><tspan x="0" y="75">smoothen_pwm_change() : pwm の加減速処理</tspan><tspan x="0" y="90">check_pol() : エンコーダの極性が正しいか確認する</tspan><tspan x="0" y="120">pwm : 出力する PWM 波形のデューティー比</tspan><tspan x="0" y="135">cur_rev : 回転数現在値</tspan><tspan x="0" y="150">angle_diff : 回転角の目標値と現在値の差</tspan><tspan x="0" y="165">cnt_diff : QEI モジュールの位置カウントの偏差</tspan><tspan x="0" y="180">　　( angle_diff と同様のものと考えて問題ない )</tspan></text><polyline class="cls-5" points="867.33 216.83 867.33 220.33 863.83 220.33"/><line class="cls-16" x1="856.76" y1="220.33" x2="591.54" y2="220.33"/><polyline class="cls-5" points="588 220.33 584.5 220.33 584.5 216.83"/><line class="cls-17" x1="584.5" y1="209.96" x2="584.5" y2="20.91"/><polyline class="cls-5" points="584.5 17.48 584.5 13.97 588 13.97"/><line class="cls-16" x1="595.07" y1="13.97" x2="860.3" y2="13.97"/><polyline class="cls-5" points="863.83 13.97 867.33 13.97 867.33 17.48"/><line class="cls-17" x1="867.33" y1="24.35" x2="867.33" y2="213.39"/><line class="cls-5" x1="248.39" y1="328.09" x2="162.78" y2="328.09"/><polygon class="cls-6" points="168.69 324.91 169.03 325.85 162.88 328.09 169.03 330.33 168.69 331.27 159.95 328.09 168.69 324.91"/><rect class="cls-2" x="100.98" y="340.69" width="117.97" height="22.67"/><line class="cls-2" x1="111.65" y1="340.69" x2="111.65" y2="363.36"/><line class="cls-2" x1="209.06" y1="340.69" x2="209.06" y2="363.36"/><text class="cls-3" transform="translate(120.13 355.86)">calc_encoder()</text><rect class="cls-2" x="127.76" y="168.85" width="64.39" height="22.67"/><text class="cls-3" transform="translate(135.51 184.01)">pwm ← 0</text><polyline class="cls-18" points="275.5 310.75 275.5 314.25 272 314.25"/><line class="cls-19" x1="265.16" y1="314.25" x2="76.92" y2="314.25"/><polyline class="cls-18" points="73.5 314.25 70 314.25 70 310.75"/><line class="cls-20" x1="70" y1="303.78" x2="70" y2="56.24"/><polyline class="cls-18" points="70 52.75 70 49.25 73.5 49.25"/><line class="cls-19" x1="80.34" y1="49.25" x2="268.58" y2="49.25"/><polyline class="cls-18" points="272 49.25 275.5 49.25 275.5 52.75"/><line class="cls-20" x1="275.5" y1="59.72" x2="275.5" y2="307.26"/><polyline class="cls-18" points="571.5 203.5 571.5 207 568 207"/><line class="cls-21" x1="560.9" y1="207" x2="351.55" y2="207"/><polyline class="cls-18" points="348 207 344.5 207 344.5 203.5"/><line class="cls-22" x1="344.5" y1="196.64" x2="344.5" y2="62.93"/><polyline class="cls-18" points="344.5 59.5 344.5 56 348 56"/><line class="cls-21" x1="355.1" y1="56" x2="564.45" y2="56"/><polyline class="cls-18" points="568 56 571.5 56 571.5 59.5"/><line class="cls-22" x1="571.5" y1="66.35" x2="571.5" y2="200.07"/><polyline class="cls-18" points="597 378.5 597 382 593.5 382"/><line class="cls-23" x1="586.49" y1="382" x2="337.51" y2="382"/><polyline class="cls-18" points="334 382 330.5 382 330.5 378.5"/><line class="cls-24" x1="330.5" y1="371.59" x2="330.5" y2="236.95"/><polyline class="cls-18" points="330.5 233.5 330.5 230 334 230"/><line class="cls-23" x1="341.01" y1="230" x2="589.99" y2="230"/><polyline class="cls-18" points="593.5 230 597 230 597 233.5"/><line class="cls-24" x1="597" y1="240.4" x2="597" y2="375.05"/><polyline class="cls-18" points="579.17 539.5 579.17 543 575.67 543"/><line class="cls-25" x1="568.61" y1="543" x2="346.2" y2="543"/><polyline class="cls-18" points="342.67 543 339.17 543 339.17 539.5"/><line class="cls-26" x1="339.17" y1="532.48" x2="339.17" y2="409.67"/><polyline class="cls-18" points="339.17 406.16 339.17 402.66 342.67 402.66"/><line class="cls-25" x1="349.73" y1="402.66" x2="572.14" y2="402.66"/><polyline class="cls-18" points="575.67 402.66 579.17 402.66 579.17 406.16"/><line class="cls-26" x1="579.17" y1="413.18" x2="579.17" y2="535.99"/><polyline class="cls-18" points="829.5 453 829.5 456.5 826 456.5"/><line class="cls-27" x1="818.99" y1="456.5" x2="640.17" y2="456.5"/><polyline class="cls-18" points="636.67 456.5 633.17 456.5 633.17 453"/><line class="cls-28" x1="633.17" y1="446.02" x2="633.17" y2="323.99"/><polyline class="cls-18" points="633.17 320.5 633.17 317 636.67 317"/><line class="cls-27" x1="643.68" y1="317" x2="822.49" y2="317"/><polyline class="cls-18" points="826 317 829.5 317 829.5 320.5"/><line class="cls-28" x1="829.5" y1="327.47" x2="829.5" y2="449.51"/><polyline class="cls-18" points="305.5 540.5 305.5 544 302 544"/><line class="cls-29" x1="295.14" y1="544" x2="51.43" y2="544"/><polyline class="cls-18" points="48 544 44.5 544 44.5 540.5"/><line class="cls-30" x1="44.5" y1="533.54" x2="44.5" y2="425.73"/><polyline class="cls-18" points="44.5 422.25 44.5 418.75 48 418.75"/><line class="cls-29" x1="54.86" y1="418.75" x2="298.57" y2="418.75"/><polyline class="cls-18" points="302 418.75 305.5 418.75 305.5 422.25"/><line class="cls-30" x1="305.5" y1="429.21" x2="305.5" y2="537.02"/><text class="cls-31" transform="translate(69.33 44.16)">A</text><text class="cls-31" transform="translate(15 396.12)">B</text><text class="cls-31" transform="translate(50.37 433.35)">C</text><text class="cls-31" transform="translate(351.05 73.53)">D</text><text class="cls-31" transform="translate(335.25 244.8)">E</text><text class="cls-31" transform="translate(346.75 422.05)">F</text><text class="cls-31" transform="translate(641.56 333.62)">H</text><text class="cls-31" transform="translate(655.59 483.86)">I</text><text class="cls-31" transform="translate(614.5 294.86)">G</text><line class="cls-5" x1="160.36" y1="154.52" x2="160.36" y2="166.02"/><polygon class="cls-6" points="157.18 160.11 158.12 159.77 160.36 165.93 162.6 159.77 163.54 160.11 160.36 168.85 157.18 160.11"/><line class="cls-5" x1="160.36" y1="191.52" x2="160.36" y2="211.37"/><polygon class="cls-6" points="157.18 205.46 158.12 205.12 160.36 211.28 162.6 205.12 163.54 205.46 160.36 214.2 157.18 205.46"/><polyline class="cls-5" points="211.08 130.71 228.5 130.71 228.5 198 163.19 198"/><polygon class="cls-6" points="169.1 194.82 169.44 195.76 163.28 198 169.44 200.24 169.1 201.18 160.36 198 169.1 194.82"/></svg>